<?xml version="1.0" encoding="UTF-8"?><svg xmlns="http://www.w3.org/2000/svg" xmlns:xlink="http://www.w3.org/1999/xlink" viewBox="0 0 502.32 198.68"><defs><filter id="drop-shadow-1" filterUnits="userSpaceOnUse"><feOffset dx="2" dy="3"/><feGaussianBlur result="blur" stdDeviation="3"/><feFlood flood-color="#191613" flood-opacity=".75"/><feComposite in2="blur" operator="in"/><feComposite in="SourceGraphic"/></filter><filter id="drop-shadow-2" filterUnits="userSpaceOnUse"><feOffset dx="2" dy="3"/><feGaussianBlur result="blur-2" stdDeviation="3"/><feFlood flood-color="#191613" flood-opacity=".75"/><feComposite in2="blur-2" operator="in"/><feComposite in="SourceGraphic"/></filter><filter id="drop-shadow-3" filterUnits="userSpaceOnUse"><feOffset dx="2" dy="3"/><feGaussianBlur result="blur-3" stdDeviation="3"/><feFlood flood-color="#191613" flood-opacity=".75"/><feComposite in2="blur-3" operator="in"/><feComposite in="SourceGraphic"/></filter></defs><g id="Ebene_12"><path d="M199.36,77.88c1.5,1.7,2.25,4.05,2.25,7.05v23.64h-11.88v-21.48c0-1.16-.14-1.97-.42-2.43-.28-.46-.68-.69-1.2-.69-.6,0-1.18.27-1.74.81s-1.08,1.33-1.56,2.37v21.42h-11.88v-21.48c0-1.16-.14-1.97-.42-2.43-.28-.46-.68-.69-1.2-.69-.6,0-1.18.27-1.74.81-.56.54-1.08,1.33-1.56,2.37v21.42h-11.88v-32.04h10.38l.84,3.24c1.28-1.56,2.67-2.69,4.17-3.39,1.5-.7,3.21-1.05,5.13-1.05,1.68,0,3.14.4,4.38,1.2,1.24.8,2.18,1.94,2.82,3.42,1.36-1.6,2.8-2.77,4.32-3.51,1.52-.74,3.28-1.11,5.28-1.11,2.44,0,4.41.85,5.91,2.55Z" style="fill:#fff; stroke-width:0px;"/><path d="M226.63,108.51c-1.36,4.44-3.68,7.8-6.96,10.08-3.28,2.28-7.6,3.5-12.96,3.66l-1.26-8.1c3.08-.32,5.37-.88,6.87-1.68,1.5-.8,2.67-2.1,3.51-3.9h-4.08l-9.12-32.04h12.6l4.02,24.78,4.98-24.78h12.24l-9.84,31.98Z" style="fill:#fff; stroke-width:0px;"/><path d="M252.61,101.91c0,3.64-.7,6.65-2.1,9.03-1.4,2.38-3.17,4.23-5.31,5.55-2.14,1.32-4.65,2.46-7.53,3.42l-3.3-8.7c1.72-.64,3-1.41,3.84-2.31.84-.9,1.39-1.92,1.65-3.06.26-1.14.39-2.59.39-4.35v-34.68h12.36v35.1Z" style="fill:#fff; stroke-width:0px;"/><path d="M286.51,108.57h-10.38l-.42-3.48c-2.2,3.12-5.36,4.68-9.48,4.68-3,0-5.24-.9-6.72-2.7-1.48-1.8-2.22-4.3-2.22-7.5v-23.04h11.88v21.48c0,1.16.17,1.97.51,2.43.34.46.83.69,1.47.69.56,0,1.15-.22,1.77-.66.62-.44,1.19-1.1,1.71-1.98v-21.96h11.88v32.04Z" style="fill:#fff; stroke-width:0px;"/><path d="M334.78,77.88c1.5,1.7,2.25,4.05,2.25,7.05v23.64h-11.88v-21.48c0-1.16-.14-1.97-.42-2.43-.28-.46-.68-.69-1.2-.69-.6,0-1.18.27-1.74.81-.56.54-1.08,1.33-1.56,2.37v21.42h-11.88v-21.48c0-1.16-.14-1.97-.42-2.43-.28-.46-.68-.69-1.2-.69-.6,0-1.18.27-1.74.81-.56.54-1.08,1.33-1.56,2.37v21.42h-11.88v-32.04h10.38l.84,3.24c1.28-1.56,2.67-2.69,4.17-3.39,1.5-.7,3.21-1.05,5.13-1.05,1.68,0,3.14.4,4.38,1.2,1.24.8,2.18,1.94,2.82,3.42,1.36-1.6,2.8-2.77,4.32-3.51,1.52-.74,3.28-1.11,5.28-1.11,2.44,0,4.41.85,5.91,2.55Z" style="fill:#fff; stroke-width:0px;"/><path d="M370.84,79.83c2.02,3,3.03,7.2,3.03,12.6,0,3.32-.53,6.29-1.59,8.91-1.06,2.62-2.56,4.68-4.5,6.18-1.94,1.5-4.17,2.25-6.69,2.25-3.04,0-5.52-1.06-7.44-3.18v14.4l-11.88,1.2v-45.66h10.56l.48,3.12c1.28-1.52,2.71-2.62,4.29-3.3,1.58-.68,3.17-1.02,4.77-1.02,3.96,0,6.95,1.5,8.97,4.5ZM361.69,92.61c0-2.44-.16-4.3-.48-5.58-.32-1.28-.75-2.13-1.29-2.55s-1.23-.63-2.07-.63c-1.68,0-3.08,1-4.2,3v12.24c.52.8,1.06,1.37,1.62,1.71.56.34,1.2.51,1.92.51,3,0,4.5-2.9,4.5-8.7Z" style="fill:#fff; stroke-width:0px;"/><path d="M407.29,71.28c4.04,2.98,6.06,8.39,6.06,16.23s-1.94,13.16-5.82,16.32c-3.88,3.16-9.1,4.74-15.66,4.74h-14.1v-41.76h13.38c6.72,0,12.1,1.49,16.14,4.47ZM390.13,75.51v24.36h2.46c1.92,0,3.46-.38,4.62-1.14,1.16-.76,2.02-2.03,2.58-3.81.56-1.78.84-4.25.84-7.41s-.29-5.55-.87-7.29c-.58-1.74-1.45-2.96-2.61-3.66-1.16-.7-2.66-1.05-4.5-1.05h-2.52Z" style="fill:#fff; stroke-width:0px;"/><path d="M444.61,100.68c.28.54.78.95,1.5,1.23l-2.4,7.62c-2.16-.16-3.92-.57-5.28-1.23-1.36-.66-2.48-1.73-3.36-3.21-2.08,3.12-5.3,4.68-9.66,4.68-3.16,0-5.71-.95-7.65-2.85-1.94-1.9-2.91-4.35-2.91-7.35,0-3.56,1.32-6.28,3.96-8.16,2.64-1.88,6.48-2.82,11.52-2.82h2.28v-.78c0-1.6-.32-2.68-.96-3.24-.64-.56-1.86-.84-3.66-.84-.96,0-2.19.15-3.69.45-1.5.3-3.03.71-4.59,1.23l-2.58-7.56c1.96-.8,4.09-1.42,6.39-1.86,2.3-.44,4.39-.66,6.27-.66,5.04,0,8.7.97,10.98,2.91,2.28,1.94,3.42,4.91,3.42,8.91v11.04c0,1.12.14,1.95.42,2.49ZM431.08,100.89c.62-.36,1.13-.82,1.53-1.38v-4.74h-1.26c-1.68,0-2.92.3-3.72.9-.8.6-1.2,1.52-1.2,2.76,0,.92.24,1.65.72,2.19.48.54,1.12.81,1.92.81.72,0,1.39-.18,2.01-.54Z" style="fill:#fff; stroke-width:0px;"/><path d="M471.97,107.01c-1.24.88-2.75,1.56-4.53,2.04-1.78.48-3.47.72-5.07.72-3.96-.04-6.89-1.15-8.79-3.33s-2.85-5.41-2.85-9.69v-12.18h-3.84v-8.04h3.84v-6.72l11.88-1.38v8.1h7.2l-1.2,8.04h-6v12.06c0,1.4.22,2.39.66,2.97.44.58,1.06.87,1.86.87,1,0,2-.28,3-.84l3.84,7.38Z" style="fill:#fff; stroke-width:0px;"/><path d="M500.82,100.68c.28.54.78.95,1.5,1.23l-2.4,7.62c-2.16-.16-3.92-.57-5.28-1.23-1.36-.66-2.48-1.73-3.36-3.21-2.08,3.12-5.3,4.68-9.66,4.68-3.16,0-5.71-.95-7.65-2.85-1.94-1.9-2.91-4.35-2.91-7.35,0-3.56,1.32-6.28,3.96-8.16,2.64-1.88,6.48-2.82,11.52-2.82h2.28v-.78c0-1.6-.32-2.68-.96-3.24-.64-.56-1.86-.84-3.66-.84-.96,0-2.19.15-3.69.45-1.5.3-3.03.71-4.59,1.23l-2.58-7.56c1.96-.8,4.09-1.42,6.39-1.86,2.3-.44,4.39-.66,6.27-.66,5.04,0,8.7.97,10.98,2.91,2.28,1.94,3.42,4.91,3.42,8.91v11.04c0,1.12.14,1.95.42,2.49ZM487.29,100.89c.62-.36,1.13-.82,1.53-1.38v-4.74h-1.26c-1.68,0-2.92.3-3.72.9-.8.6-1.2,1.52-1.2,2.76,0,.92.24,1.65.72,2.19.48.54,1.12.81,1.92.81.72,0,1.39-.18,2.01-.54Z" style="fill:#fff; stroke-width:0px;"/></g><g id="Ebene_11"><path d="M92.46,129.91l-2.41-1.79c.57-.76,1.69-1.95,3.39-3.75,11.18-11.83,40.89-43.24,21.55-68.05-6.18-7.92-13.83-12.31-21.59-14.28,9.79,9.05,11.37,23.26,11.37,34.97,0,16.8-12.41,29-29.5,29-20.83,0-33.04-12.02-33.5-32.97-.32-14.46,9.27-26.93,25.02-32.54,3.86-1.37,8.26-2.33,12.92-2.64-3.55-1.05-7.65-1.7-12.4-1.85-32.2-1.01-39.49,37.01-41.88,49.51-.28,1.47-.5,2.64-.7,3.43l-2.91-.73c.18-.71.39-1.84.67-3.26,2.47-12.94,9.94-51.96,43.5-51.96.47,0,.94,0,1.42.02,8.63.28,15.29,2.11,20.43,5,10.4,1.09,21.2,5.8,29.52,16.47,20.93,26.84-11.18,60.79-21.73,71.95-1.51,1.59-2.7,2.85-3.16,3.47ZM82.88,40.76c-5.46,0-10.67,1-15.1,2.58-14.5,5.16-23.32,16.52-23.03,29.65.58,26.13,19.36,30.03,30.5,30.03,15.36,0,26.5-10.93,26.5-26,0-13.49-2.07-28.5-14.9-36.08-1.33-.12-2.66-.18-3.97-.18Z" style="fill:#fff; filter:url(#drop-shadow-1); stroke-width:0px;"/><path d="M7.52,149.66c-1.86-.49-5.51-1.63-7.01-2.09-.37-.12-.59-.5-.49-.88l1.19-4.62.85.22,16.69-52.52c.12-.37.5-.59.88-.49l3.2.82M7.52,149.66c1.87.47,5.61,1.23,7.15,1.54.38.08.76-.16.85-.54l1.19-4.62-.85-.22,10.71-54.06c.08-.38-.16-.76-.54-.86l-3.2-.82" style="fill:#f59e0b; filter:url(#drop-shadow-2); stroke-width:0px;"/><path d="M47.23,174.79c-1.38-1.35-3.99-4.13-5.06-5.28-.27-.28-.26-.73.01-1.01l3.31-3.43.63.61,40.42-37.46c.28-.27.73-.26,1.01,0l2.38,2.29M47.23,174.79c1.4,1.33,4.28,3.84,5.46,4.87.29.26.74.23,1.01-.05l3.31-3.43-.63-.61,35.98-41.74c.26-.29.24-.74-.04-1.01l-2.38-2.29" style="fill:#f59e0b; filter:url(#drop-shadow-3); stroke-width:0px;"/></g></svg>